<svg
	viewBox="0 0 20 20"
	width="1em"
	xmlns="http://www.w3.org/2000/svg"
	focusable="false"
>
	<path
		fillRule="evenodd"
		clipRule="evenodd"
		d="M10 2.49998C5.85787 2.49998 2.50001 5.85784 2.50001 9.99998C2.50001 14.1421 5.85787 17.5 10 17.5C14.1421 17.5 17.5 14.1421 17.5 9.99998C17.5 5.85784 14.1421 2.49998 10 2.49998ZM0.833344 9.99998C0.833344 4.93737 4.9374 0.833313 10 0.833313C15.0626 0.833313 19.1667 4.93737 19.1667 9.99998C19.1667 15.0626 15.0626 19.1666 10 19.1666C4.9374 19.1666 0.833344 15.0626 0.833344 9.99998ZM10 5.83331C10.4602 5.83331 10.8333 6.20641 10.8333 6.66665V9.99998C10.8333 10.4602 10.4602 10.8333 10 10.8333C9.53977 10.8333 9.16668 10.4602 9.16668 9.99998V6.66665C9.16668 6.20641 9.53977 5.83331 10 5.83331ZM10 12.5C9.53977 12.5 9.16668 12.8731 9.16668 13.3333C9.16668 13.7935 9.53977 14.1666 10 14.1666H10.0083C10.4686 14.1666 10.8417 13.7935 10.8417 13.3333C10.8417 12.8731 10.4686 12.5 10.0083 12.5H10Z"
		fill="currentColor"
	/>
</svg>
