<svg fill="none" xmlns="http://www.w3.org/2000/svg" viewBox="0 0 44 44"><circle cx="22" cy="22" r="22" fill="#2867B2"/><path fill-rule="evenodd" clip-rule="evenodd" d="M13 14a1 1 0 1 1 2 0 1 1 0 0 1-2 0zm1-3a3 3 0 1 0 0 6 3 3 0 0 0 0-6zm12 8a5 5 0 0 0-5 5v6h2v-6a3 3 0 0 1 6 0v6h2v-6a5 5 0 0 0-5-5zm0-2a7 7 0 0 0-7 7v7a1 1 0 0 0 1 1h4a1 1 0 0 0 1-1v-7a1 1 0 0 1 2 0v7a1 1 0 0 0 1 1h4a1 1 0 0 0 1-1v-7a7 7 0 0 0-7-7zm-15 2a1 1 0 0 1 1-1h4a1 1 0 0 1 1 1v12a1 1 0 0 1-1 1h-4a1 1 0 0 1-1-1V19zm2 1v10h2V20h-2z" fill="#fff"/></svg>